<?xml version="1.0" encoding="UTF-8" ?>
<svg width="1080px" height="1920px" viewBox="0 0 1080 1920" version="1.1" xmlns="http://www.w3.org/2000/svg">
    <circle cx="550" cy="650" r="100"  fill="#ff00ff"/>
    <circle cx="450" cy="800" r="100"  fill="#00ff00"/>
    <circle cx="300" cy="300" r="50"  fill="#849934"/>
    <circle cx="300" cy="150" r="150"  fill="#000099"/>
    <circle cx="600" cy="300" r="130"  fill="#0f9204" />
    <circle cx="300" cy="600" r="80"  fill="#449320"/>

    <circle cx="750" cy="1080" r="50"  fill="#f290ff"/>
    <circle cx="980" cy="1500" r="100"  fill="#60ff00"/>
    <circle cx="500" cy="1800" r="50"  fill="#02f9f3"/>
    <circle cx="800" cy="1000" r="150"  fill="#08f099"/>
    <circle cx="660" cy="1500" r="200"  fill="#0f9204" />
    <circle cx="430" cy="1600" r="80"  fill="#419260"/>

    <circle cx="800" cy="100" r="40"  fill="#f2860f"/>
    <circle cx="100" cy="1760" r="100"  fill="#038500"/>
    <circle cx="900" cy="700" r="50"  fill="#093103"/>
    <circle cx="300" cy="1300" r="100"  fill="#056099"/>
    <circle cx="400" cy="900" r="140"  fill="#109954" />
    <circle cx="950" cy="360" r="80"  fill="#449320"/>

    <circle cx="400" cy="700" r="40"  fill="#14f914" />
    <circle cx="850" cy="730" r="60"  fill="#4a39a0"/>


</svg>
