<?xml version="1.0" encoding="UTF-8" ?>
<svg width="512px" height="512px" viewBox="0 0 512 512" version="1.1" xmlns="http://www.w3.org/2000/svg">
<g id="#414042ff">
<path fill="#414042" opacity="1.00" d=" M 420.37 26.50 C 425.88 24.56 431.87 30.42 430.01 35.97 C 428.75 41.32 421.33 43.48 417.41 39.60 C 412.96 35.92 414.78 27.91 420.37 26.50 Z" />
<path fill="#414042" opacity="1.00" d=" M 349.39 40.55 C 352.84 38.92 357.11 42.39 356.22 46.10 C 355.70 49.76 350.76 51.53 348.05 49.00 C 345.19 46.79 345.99 41.78 349.39 40.55 Z" />
<path fill="#414042" opacity="1.00" d=" M 205.41 45.67 C 208.82 43.79 213.31 47.14 212.55 50.94 C 212.16 54.48 207.58 56.47 204.75 54.31 C 201.60 52.36 202.02 47.13 205.41 45.67 Z" />
<path fill="#414042" opacity="1.00" d=" M 346.79 71.14 C 356.41 60.64 370.54 53.90 384.94 54.89 C 409.00 56.29 430.03 77.88 430.57 102.02 C 430.72 106.89 429.89 111.75 428.56 116.42 C 430.41 118.27 432.31 120.07 434.16 121.92 C 433.65 117.14 440.00 114.08 443.09 117.92 C 446.24 121.37 442.86 126.65 438.53 126.43 C 467.74 155.86 487.42 194.61 494.30 235.48 C 500.48 272.24 496.19 310.74 481.81 345.15 C 484.97 346.32 488.07 348.37 489.18 351.72 C 491.25 356.87 488.10 363.20 482.79 364.73 C 479.37 365.53 475.82 365.09 472.35 365.21 C 449.49 407.13 411.99 440.84 367.74 458.83 C 365.51 472.40 353.92 484.08 340.16 485.72 C 329.48 486.95 319.05 481.10 312.76 472.72 C 290.12 474.71 267.14 473.51 245.04 468.05 C 190.86 455.17 142.97 419.01 114.95 370.99 C 106.47 356.61 99.82 341.18 95.06 325.19 C 72.37 325.18 49.68 325.19 27.00 325.18 C 21.74 325.54 16.77 321.20 16.52 315.92 C 15.96 310.52 20.56 305.26 26.02 305.23 C 47.45 305.13 68.88 305.22 90.30 305.19 C 84.83 276.08 86.10 245.80 93.58 217.17 C 86.38 217.15 79.19 217.27 72.00 217.14 C 66.26 217.21 61.44 211.50 62.38 205.86 C 62.92 201.17 67.21 197.20 71.98 197.23 C 81.33 197.10 90.69 197.24 100.05 197.18 C 114.55 159.05 140.61 125.49 173.79 101.81 C 203.62 80.38 239.30 67.04 275.95 64.19 C 299.73 62.24 323.83 64.68 346.79 71.14 M 374.40 71.62 C 364.99 73.53 356.60 80.08 352.84 88.97 C 347.65 101.10 349.44 116.59 358.89 126.18 C 371.02 138.42 393.12 138.50 405.41 126.46 C 418.23 113.72 417.66 89.96 403.76 78.22 C 395.79 71.40 384.49 69.50 374.40 71.62 M 274.93 83.21 C 260.64 84.80 246.69 88.56 233.02 92.93 C 231.78 93.34 230.51 93.75 229.38 94.43 C 218.67 97.35 208.71 102.58 199.01 107.90 C 163.92 127.81 135.95 159.81 120.75 197.17 C 124.15 197.19 127.55 197.19 130.95 197.18 C 183.64 197.20 236.34 197.17 289.03 197.19 C 294.40 196.90 299.32 201.60 299.30 206.98 C 299.56 212.50 294.55 217.47 289.03 217.17 C 234.01 217.21 178.98 217.18 123.96 217.19 C 120.62 217.18 117.29 217.19 113.95 217.19 C 105.85 245.66 104.94 275.99 110.31 305.05 C 113.85 305.25 117.39 305.21 120.94 305.17 C 170.64 305.20 220.34 305.17 270.05 305.18 C 274.63 304.86 279.13 308.00 280.32 312.46 C 282.24 318.41 277.27 325.26 270.99 325.14 C 223.18 325.25 175.36 325.16 127.55 325.19 C 123.55 325.19 119.54 325.22 115.53 325.12 C 127.18 363.65 152.38 397.82 185.45 420.72 C 219.99 444.87 263.00 456.20 304.96 453.18 C 306.36 453.29 307.07 452.64 307.07 451.24 C 309.54 435.03 326.53 421.64 342.99 425.31 C 351.44 427.04 358.19 432.93 363.35 439.56 C 377.79 433.93 391.28 425.94 403.79 416.80 C 404.66 416.18 405.37 415.40 405.91 414.46 L 406.61 414.43 C 423.99 400.69 439.46 384.32 450.77 365.18 C 448.48 365.18 446.20 365.19 443.93 365.19 C 383.64 365.17 323.35 365.21 263.06 365.17 C 257.56 365.49 252.56 360.55 252.79 355.06 C 252.70 349.71 257.57 344.96 262.93 345.20 C 326.22 345.17 389.52 345.19 452.82 345.19 C 455.52 345.20 458.23 345.18 460.93 345.12 C 462.53 340.96 464.45 336.92 465.66 332.62 C 467.61 329.01 468.55 324.98 469.74 321.08 C 483.81 272.16 477.53 217.47 451.51 173.58 C 449.32 170.16 447.57 166.38 444.63 163.52 C 437.44 152.41 428.68 142.34 419.21 133.12 C 418.84 133.63 418.10 134.67 417.74 135.19 C 408.10 145.41 394.30 152.18 380.06 151.32 C 359.89 150.30 341.74 135.18 335.94 116.02 C 332.95 106.50 333.52 96.06 337.06 86.77 C 316.77 81.90 295.64 80.94 274.93 83.21 M 331.38 441.59 C 322.35 444.45 320.51 456.62 324.92 463.99 C 328.97 470.28 337.96 471.19 344.42 468.48 C 352.36 464.97 353.69 454.03 349.90 447.02 C 346.33 440.69 337.77 439.54 331.38 441.59 Z" />
<path fill="#414042" opacity="1.00" d=" M 317.40 199.61 C 323.31 197.51 329.60 204.13 327.11 209.93 C 325.35 215.48 317.20 216.90 313.65 212.30 C 309.95 208.27 312.09 200.99 317.40 199.61 Z" />
<path fill="#414042" opacity="1.00" d=" M 388.41 248.56 C 394.28 246.23 401.51 249.89 403.13 255.97 C 405.09 261.93 401.05 268.90 394.92 270.19 C 389.13 271.74 382.68 267.82 381.33 262.00 C 379.80 256.55 383.08 250.39 388.41 248.56 Z" />
<path fill="#414042" opacity="1.00" d=" M 250.14 249.32 C 288.08 249.00 326.04 249.28 363.99 249.18 C 368.10 248.87 372.28 251.16 373.96 254.96 C 376.07 259.25 374.49 264.86 370.50 267.47 C 367.45 269.67 363.51 269.13 359.98 269.20 C 323.99 269.16 287.99 269.21 252.00 269.18 C 246.78 269.50 241.86 265.17 241.61 259.94 C 241.11 254.89 245.08 249.87 250.14 249.32 Z" />
<path fill="#414042" opacity="1.00" d=" M 291.23 306.28 C 297.81 303.43 305.62 310.03 303.93 316.99 C 302.92 323.86 293.67 327.18 288.53 322.51 C 282.91 318.29 284.57 308.47 291.23 306.28 Z" />
<path fill="#414042" opacity="1.00" d=" M 159.20 359.23 C 161.25 358.00 164.13 358.55 165.58 360.44 C 166.86 361.96 166.55 364.08 166.85 365.91 C 167.10 370.95 169.33 376.49 174.17 378.70 C 176.99 379.98 181.17 378.93 182.79 382.20 C 184.77 385.44 181.84 390.01 178.07 389.60 C 167.24 389.14 159.27 379.14 157.26 369.14 C 156.68 365.86 155.66 361.21 159.20 359.23 Z" />
</g>
<g id="#5fc7e6ff">
<path fill="#5fc7e6" opacity="1.00" d=" M 374.40 71.62 C 384.49 69.50 395.79 71.40 403.76 78.22 C 417.66 89.96 418.23 113.72 405.41 126.46 C 393.12 138.50 371.02 138.42 358.89 126.18 C 349.44 116.59 347.65 101.10 352.84 88.97 C 356.60 80.08 364.99 73.53 374.40 71.62 Z" />
<path fill="#5fc7e6" opacity="1.00" d=" M 274.93 83.21 C 295.64 80.94 316.77 81.90 337.06 86.77 C 333.52 96.06 332.95 106.50 335.94 116.02 C 341.74 135.18 359.89 150.30 380.06 151.32 C 394.30 152.18 408.10 145.41 417.74 135.19 C 433.81 153.53 446.16 175.05 453.97 198.15 C 462.74 223.74 466.39 250.98 465.42 277.98 C 464.71 300.85 460.70 323.67 452.82 345.19 C 389.52 345.19 326.22 345.17 262.93 345.20 C 257.57 344.96 252.70 349.71 252.79 355.06 C 252.56 360.55 257.56 365.49 263.06 365.17 C 323.35 365.21 383.64 365.17 443.93 365.19 C 433.71 384.13 420.06 401.39 402.96 414.57 C 403.70 414.55 405.17 414.49 405.91 414.46 C 405.37 415.40 404.66 416.18 403.79 416.80 C 391.28 425.94 377.79 433.93 363.35 439.56 C 358.19 432.93 351.44 427.04 342.99 425.31 C 326.53 421.64 309.54 435.03 307.07 451.24 C 277.66 453.40 248.21 445.44 222.43 431.54 C 202.48 420.77 184.37 406.65 168.85 390.15 C 151.33 371.25 136.55 349.41 127.55 325.19 C 175.36 325.16 223.18 325.25 270.99 325.14 C 277.27 325.26 282.24 318.41 280.32 312.46 C 279.13 308.00 274.63 304.86 270.05 305.18 C 220.34 305.17 170.64 305.20 120.94 305.17 C 113.69 276.30 115.64 245.61 123.96 217.19 C 178.98 217.18 234.01 217.21 289.03 217.17 C 294.55 217.47 299.56 212.50 299.30 206.98 C 299.32 201.60 294.40 196.90 289.03 197.19 C 236.34 197.17 183.64 197.20 130.95 197.18 C 148.15 155.57 180.00 119.77 220.38 99.48 C 223.53 98.08 226.61 96.51 229.38 94.43 C 230.51 93.75 231.78 93.34 233.02 92.93 C 246.69 88.56 260.64 84.80 274.93 83.21 M 317.40 199.61 C 312.09 200.99 309.95 208.27 313.65 212.30 C 317.20 216.90 325.35 215.48 327.11 209.93 C 329.60 204.13 323.31 197.51 317.40 199.61 M 388.41 248.56 C 383.08 250.39 379.80 256.55 381.33 262.00 C 382.68 267.82 389.13 271.74 394.92 270.19 C 401.05 268.90 405.09 261.93 403.13 255.97 C 401.51 249.89 394.28 246.23 388.41 248.56 M 250.14 249.32 C 245.08 249.87 241.11 254.89 241.61 259.94 C 241.86 265.17 246.78 269.50 252.00 269.18 C 287.99 269.21 323.99 269.16 359.98 269.20 C 363.51 269.13 367.45 269.67 370.50 267.47 C 374.49 264.86 376.07 259.25 373.96 254.96 C 372.28 251.16 368.10 248.87 363.99 249.18 C 326.04 249.28 288.08 249.00 250.14 249.32 M 291.23 306.28 C 284.57 308.47 282.91 318.29 288.53 322.51 C 293.67 327.18 302.92 323.86 303.93 316.99 C 305.62 310.03 297.81 303.43 291.23 306.28 M 159.20 359.23 C 155.66 361.21 156.68 365.86 157.26 369.14 C 159.27 379.14 167.24 389.14 178.07 389.60 C 181.84 390.01 184.77 385.44 182.79 382.20 C 181.17 378.93 176.99 379.98 174.17 378.70 C 169.33 376.49 167.10 370.95 166.85 365.91 C 166.55 364.08 166.86 361.96 165.58 360.44 C 164.13 358.55 161.25 358.00 159.20 359.23 Z" />
</g>
<g id="#50abc4ff">
<path fill="#50abc4" opacity="1.00" d=" M 199.01 107.90 C 208.71 102.58 218.67 97.35 229.38 94.43 C 226.61 96.51 223.53 98.08 220.38 99.48 C 180.00 119.77 148.15 155.57 130.95 197.18 C 127.55 197.19 124.15 197.19 120.75 197.17 C 135.95 159.81 163.92 127.81 199.01 107.90 Z" />
<path fill="#50abc4" opacity="1.00" d=" M 444.63 163.52 C 447.57 166.38 449.32 170.16 451.51 173.58 C 477.53 217.47 483.81 272.16 469.74 321.08 C 468.55 324.98 467.61 329.01 465.66 332.62 C 466.16 330.45 466.64 328.28 467.25 326.14 C 473.16 306.02 475.58 284.98 475.46 264.04 C 475.23 234.14 467.20 204.46 452.94 178.22 C 450.36 173.21 447.04 168.62 444.63 163.52 Z" />
<path fill="#50abc4" opacity="1.00" d=" M 113.95 217.19 C 117.29 217.19 120.62 217.18 123.96 217.19 C 115.64 245.61 113.69 276.30 120.94 305.17 C 117.39 305.21 113.85 305.25 110.31 305.05 C 104.94 275.99 105.85 245.66 113.95 217.19 Z" />
<path fill="#50abc4" opacity="1.00" d=" M 115.53 325.12 C 119.54 325.22 123.55 325.19 127.55 325.19 C 136.55 349.41 151.33 371.25 168.85 390.15 C 184.37 406.65 202.48 420.77 222.43 431.54 C 248.21 445.44 277.66 453.40 307.07 451.24 C 307.07 452.64 306.36 453.29 304.96 453.18 C 263.00 456.20 219.99 444.87 185.45 420.72 C 152.38 397.82 127.18 363.65 115.53 325.12 Z" />
</g>
<g id="#aedeefff">
<path fill="#aedeef" opacity="1.00" d=" M 417.74 135.19 C 418.10 134.67 418.84 133.63 419.21 133.12 C 428.68 142.34 437.44 152.41 444.63 163.52 C 447.04 168.62 450.36 173.21 452.94 178.22 C 467.20 204.46 475.23 234.14 475.46 264.04 C 475.58 284.98 473.16 306.02 467.25 326.14 C 466.64 328.28 466.16 330.45 465.66 332.62 C 464.45 336.92 462.53 340.96 460.93 345.12 C 458.23 345.18 455.52 345.20 452.82 345.19 C 460.70 323.67 464.71 300.85 465.42 277.98 C 466.39 250.98 462.74 223.74 453.97 198.15 C 446.16 175.05 433.81 153.53 417.74 135.19 Z" />
<path fill="#aedeef" opacity="1.00" d=" M 443.93 365.19 C 446.20 365.19 448.48 365.18 450.77 365.18 C 439.46 384.32 423.99 400.69 406.61 414.43 L 405.91 414.46 C 405.17 414.49 403.70 414.55 402.96 414.57 C 420.06 401.39 433.71 384.13 443.93 365.19 Z" />
</g>
<g id="#fbec7dff">
<path fill="#fbec7d" opacity="1.00" d=" M 331.38 441.59 C 337.77 439.54 346.33 440.69 349.90 447.02 C 353.69 454.03 352.36 464.97 344.42 468.48 C 337.96 471.19 328.97 470.28 324.92 463.99 C 320.51 456.62 322.35 444.45 331.38 441.59 Z" />
</g>
</svg>
